<svg xmlns="http://www.w3.org/2000/svg" width="72.972" height="39.692" viewBox="0 0 72.972 39.692"><defs><style>.b,.c{fill:#fff;fill-rule:evenodd}.c{fill:#016fd0}</style></defs><g><rect width="72.972" height="39.692" rx="4.679" style="fill:#fff"/><path class="b" d="M19.072 30.172v-8.939h9.464l1.016 1.324 1.049-1.324h34.353v8.322a3.969 3.969 0 0 1-1.938.617H43.994l-1.145-1.409v1.409h-3.751v-2.41a3.148 3.148 0 0 1-1.62.336h-1.277v2.069h-5.68l-1.014-1.352-1.03 1.352zM8.02 14.497l2.134-4.976h3.691l1.211 2.787V9.521h4.588l.721 2.014.7-2.014h20.6v1.012a4.445 4.445 0 0 1 2.862-1.012l6.683.023 1.19 2.75V9.521h3.839l1.057 1.58v-1.58h3.875v8.939h-3.875l-1.013-1.585v1.585h-5.641l-.567-1.409h-1.516l-.558 1.409h-3.825a3.782 3.782 0 0 1-2.51-.992v.992h-5.768l-1.145-1.409v1.409H13.298l-.567-1.409h-1.512l-.563 1.409H8.019v-3.963z"/><path class="c" d="m10.909 10.622-2.878 6.693h1.873l.531-1.34h3.088l.528 1.34h1.915l-2.876-6.693zm1.065 1.558.941 2.342H11.03l.944-2.342zM16.165 17.314v-6.693l2.663.01 1.549 4.315 1.512-4.325h2.642v6.693h-1.673v-4.932l-1.774 4.932h-1.467l-1.779-4.932v4.932zM25.676 17.314v-6.693h5.46v1.5h-3.769v1.145h3.681v1.409h-3.681v1.189h3.769v1.45zM32.105 10.622v6.691h1.673v-2.378h.7l2.006 2.378h2.045l-2.2-2.466a2.038 2.038 0 0 0 1.835-2.056 2.165 2.165 0 0 0-2.339-2.171zm1.673 1.5h1.913a.768.768 0 0 1 .792.7.756.756 0 0 1-.768.7h-1.937v-1.409zM40.559 17.314h-1.713v-6.693h1.709v6.693zM44.61 17.314h-.369c-1.784 0-2.867-1.406-2.867-3.319a3.066 3.066 0 0 1 3.324-3.374h1.849v1.585H44.63a1.61 1.61 0 0 0-1.562 1.805 1.639 1.639 0 0 0 1.806 1.84h.44l-.705 1.462zM48.251 10.622l-2.878 6.691h1.874l.531-1.34h3.088l.529 1.34h1.918l-2.876-6.693zm1.065 1.558.941 2.342h-1.885l.944-2.342zM53.505 17.314v-6.693h2.127l2.716 4.205v-4.205h1.673v6.693h-2.059l-2.785-4.315v4.315zM20.213 29.026v-6.693h5.46v1.5h-3.769v1.145h3.681v1.409h-3.681v1.189h3.769v1.453zM46.97 29.026v-6.693h5.46v1.5h-3.769v1.145h3.664v1.409h-3.664v1.189h3.769v1.453zM25.888 29.026l2.658-3.305-2.722-3.388h2.108l1.621 2.094 1.626-2.094h2.026l-2.686 3.346 2.663 3.346h-2.108l-1.576-2.06-1.536 2.061zM33.382 22.335v6.693h1.717v-2.113h1.761a2.315 2.315 0 0 0 2.62-2.328 2.2 2.2 0 0 0-2.4-2.251zm1.717 1.514 1.851.001a.755.755 0 0 1 .826.771.772.772 0 0 1-.831.771h-1.849v-1.541zM40.207 22.333v6.693h1.671v-2.378h.7l2.006 2.378h2.045l-2.2-2.466a2.038 2.038 0 0 0 1.835-2.056 2.165 2.165 0 0 0-2.339-2.171zm1.673 1.5h1.913a.768.768 0 0 1 .792.7.756.756 0 0 1-.768.7h-1.939v-1.409zM53.205 29.026v-1.453h3.349c.5 0 .71-.267.71-.561s-.214-.566-.71-.566h-1.513a1.871 1.871 0 0 1-2.048-2c0-1.073.671-2.108 2.625-2.108h3.258l-.7 1.506h-2.818c-.539 0-.7.283-.7.553a.583.583 0 0 0 .616.584h1.585a1.836 1.836 0 0 1 2.1 1.921 2.007 2.007 0 0 1-2.182 2.13zM59.346 29.026v-1.453h3.207c.5 0 .71-.267.71-.561s-.214-.566-.71-.566h-1.372a1.871 1.871 0 0 1-2.047-2c0-1.073.67-2.108 2.625-2.108h3.194l-.7 1.506h-2.754c-.539 0-.7.283-.7.553a.583.583 0 0 0 .617.584h1.443a1.836 1.836 0 0 1 2.1 1.921 2.007 2.007 0 0 1-2.182 2.13z"/></g></svg>