<svg xmlns="http://www.w3.org/2000/svg" width="29.897" height="31.164" viewBox="0 0 29.897 31.164"><path d="M463.206,519a.693.693,0,0,0-.15-.409,1.115,1.115,0,0,0-.124-.123.693.693,0,0,0-.43-.151h-2.381a226.131,226.131,0,0,1-6.71-4.6l3.3-6.23a.688.688,0,0,0-1.216-.646l-3.509,6.625a4.825,4.825,0,0,0-3.611-1.647,4.668,4.668,0,0,0-.626.07l.413-5.252a.686.686,0,0,0-.632-.74.7.7,0,0,0-.739.632l-.453,5.745a4.84,4.84,0,0,0-1.668,1.283c-.041,0-.081,0-.123,0a54.5,54.5,0,0,0-8.134,4.765H434.03a1,1,0,0,0-.505.218.69.69,0,0,0-.2.465,14.845,14.845,0,0,0,4.209,10.877,15.044,15.044,0,0,0,3.224,2.513v2.735a1.931,1.931,0,0,0,1.929,1.929h11.159a1.931,1.931,0,0,0,1.929-1.929v-2.736A15.051,15.051,0,0,0,459,529.88,14.844,14.844,0,0,0,463.206,519Zm-22.457-1.988c.02,0,.145.014.166.016a.665.665,0,0,0,.644-.345,3.413,3.413,0,0,1,2.987-1.754,1.366,1.366,0,0,1,.194.02l.168.02a.693.693,0,0,0,.635-.29,3.4,3.4,0,0,1,.66-.694l-.155,1.957a.687.687,0,0,0,.633.739.477.477,0,0,0,.055,0,.687.687,0,0,0,.684-.635l.218-2.764a3.409,3.409,0,0,1,.736-.09,3.456,3.456,0,0,1,2.831,1.484c.025.035.066.05.1.079l-.485.915a.687.687,0,0,0,.286.93.669.669,0,0,0,.322.081.686.686,0,0,0,.608-.366l.7-1.319a3.4,3.4,0,0,1,2.449,1.666.747.747,0,0,0,.633.341,3.409,3.409,0,0,1,2.7,1.311h-20.5A3.436,3.436,0,0,1,440.749,517.016ZM454.4,535.129a.553.553,0,0,1-.552.552H442.686a.552.552,0,0,1-.551-.552V533.1a14.914,14.914,0,0,0,12.262,0Zm-6.132-2.083A13.573,13.573,0,0,1,434.7,519.7h27.139a13.571,13.571,0,0,1-13.569,13.348Z" transform="translate(-433.317 -505.894)"/></svg>