<svg xmlns="http://www.w3.org/2000/svg" width="72.972" height="39.692" viewBox="0 0 72.972 39.692"><g><rect width="72.972" height="39.692" rx="4.679" style="fill:#fff"/><path d="M25.284 34.1v-1.817a1.064 1.064 0 0 0-1.149-1.149 1.193 1.193 0 0 0-1.028.514 1.058 1.058 0 0 0-.967-.514.977.977 0 0 0-.847.423v-.363h-.635v2.9h.635v-1.6c0-.514.272-.756.7-.756s.635.272.635.756v1.6h.635v-1.6a.669.669 0 0 1 .7-.756c.423 0 .635.272.635.756v1.6zm9.4-2.9h-1.028v-.877h-.635v.877l-.576-.006v.574h.575v1.331c0 .665.272 1.058 1 1.058a1.684 1.684 0 0 0 .786-.212l-.181-.544a.994.994 0 0 1-.544.151c-.3 0-.424-.181-.424-.483v-1.3h1.028v-.574zm5.381-.06a.852.852 0 0 0-.755.423V31.2h-.635v2.9h.635v-1.633c0-.483.211-.756.6-.756a1.772 1.772 0 0 1 .393.06l.181-.6a2 2 0 0 0-.424-.03zm-8.132.3a2.078 2.078 0 0 0-1.18-.3c-.725 0-1.209.363-1.209.937 0 .484.363.755 1 .847l.3.03c.332.061.514.152.514.3 0 .212-.242.363-.665.363a1.671 1.671 0 0 1-.967-.3l-.3.483a2.135 2.135 0 0 0 1.239.363c.847 0 1.331-.393 1.331-.937 0-.514-.393-.786-1-.877l-.3-.03c-.272-.03-.483-.091-.483-.272 0-.211.212-.333.544-.333a2.178 2.178 0 0 1 .907.242l.272-.514zm16.87-.3a.853.853 0 0 0-.756.423V31.2h-.635v2.9h.635v-1.633c0-.483.212-.756.6-.756a1.773 1.773 0 0 1 .393.06l.181-.6a2 2 0 0 0-.423-.03zm-8.1 1.511a1.453 1.453 0 0 0 1.542 1.512 1.5 1.5 0 0 0 1.028-.333l-.3-.514a1.221 1.221 0 0 1-.755.272.858.858 0 0 1-.877-.937.892.892 0 0 1 .877-.937 1.219 1.219 0 0 1 .755.273l.3-.514a1.506 1.506 0 0 0-1.028-.332 1.452 1.452 0 0 0-1.542 1.511zm5.865 0V31.2h-.635v.363a1.092 1.092 0 0 0-.907-.423 1.513 1.513 0 0 0 0 3.023 1.016 1.016 0 0 0 .907-.424v.363h.635zm-2.328 0a.879.879 0 1 1 1.753 0 .879.879 0 1 1-1.753 0zm-7.589-1.511a1.512 1.512 0 0 0 .03 3.023 1.846 1.846 0 0 0 1.179-.393l-.3-.453a1.444 1.444 0 0 1-.847.3.816.816 0 0 1-.877-.7h2.146l-.006-.234a1.335 1.335 0 0 0-1.33-1.542zm0 .544a.707.707 0 0 1 .726.7l-1.512.001a.766.766 0 0 1 .786-.7zm15.752.968v-2.6h-.635v1.511a1.093 1.093 0 0 0-.907-.423 1.513 1.513 0 0 0 0 3.023 1.016 1.016 0 0 0 .907-.424v.363h.635zm-2.328 0a.879.879 0 1 1 1.754 0 .879.879 0 1 1-1.754 0zm-21.223 0v-1.451h-.635v.363a1.093 1.093 0 0 0-.907-.423 1.513 1.513 0 0 0 0 3.023 1.017 1.017 0 0 0 .907-.424v.363h.635zm-2.359 0a.879.879 0 1 1 1.754 0 .879.879 0 1 1-1.754 0z"/><path transform="translate(31.724 9.158)" style="fill:#ff5f00" d="M0 0h9.523v17.112H0z"/><path d="M328.28 961.355a10.914 10.914 0 0 1 4.142-8.556 10.884 10.884 0 1 0 0 17.112 10.868 10.868 0 0 1-4.142-8.556z" transform="translate(-295.951 -943.641)" style="fill:#eb001b"/><path d="M363.921 961.355a10.873 10.873 0 0 1-17.6 8.556 10.908 10.908 0 0 0 0-17.112 10.873 10.873 0 0 1 17.6 8.556z" transform="translate(-309.824 -943.641)" style="fill:#f79e1b"/></g></svg>