<svg xmlns="http://www.w3.org/2000/svg" width="96.991" height="58.229" viewBox="0 0 96.991 58.229"><path d="M576.215,514.288a1.425,1.425,0,0,0-1.955.537l-13.342,23.492h-4.674l6.325-29.176a1.433,1.433,0,1,0-2.8-.606l-6.457,29.782h-7.648a34.385,34.385,0,0,0,3.094-15.172,1.562,1.562,0,0,0-.556-1.093,1.431,1.431,0,0,0-.918-.333h-5.607a11.059,11.059,0,0,0-9.136-6.182,11.032,11.032,0,0,0-9.074-4.837c-.115,0-.227.006-.352.017a10.989,10.989,0,0,0-17,0,10.781,10.781,0,0,0-9.4,4.787,11.037,11.037,0,0,0-9.659,6.217h-5.613a1.563,1.563,0,0,0-.958.37,1.44,1.44,0,0,0-.516,1.056,34.179,34.179,0,0,0,9.692,25.037,34.594,34.594,0,0,0,7.5,5.832v6.417a4.306,4.306,0,0,0,4.3,4.3h25.807a4.306,4.306,0,0,0,4.3-4.3v-4.556a23.822,23.822,0,0,0,8.018,6.177H535.41a1.434,1.434,0,0,0,0,2.867h29.01a1.434,1.434,0,1,0,0-2.867h-4.129a23.881,23.881,0,0,0,13.561-22.322,1.439,1.439,0,0,0-.285-.814,1.878,1.878,0,0,0-.314-.314,1.427,1.427,0,0,0-.86-.285h-8.178l12.538-22.074A1.43,1.43,0,0,0,576.215,514.288Zm-79.221,4.1c.035,0,.341.031.391.038a1.37,1.37,0,0,0,1.326-.72,8.169,8.169,0,0,1,7.05-4.133,3.169,3.169,0,0,1,.471.048l.383.044a1.436,1.436,0,0,0,1.318-.6,8.126,8.126,0,0,1,13.359,0,1.429,1.429,0,0,0,1.32.6l.379-.044a3.312,3.312,0,0,1,.477-.048,8.053,8.053,0,0,1,7.023,4.093,1.573,1.573,0,0,0,1.328.706,8.164,8.164,0,0,1,6.554,3.352H490.342A8.106,8.106,0,0,1,496.994,518.384ZM528.7,560.432a1.437,1.437,0,0,1-1.435,1.435H501.46a1.437,1.437,0,0,1-1.435-1.435V555.5a33.921,33.921,0,0,0,28.676-.071Zm-14.337-4.66a31.55,31.55,0,0,1-31.544-31.183H545.9a31.559,31.559,0,0,1-3.377,13.729H527.438a2.217,2.217,0,0,0-1.041.446,1.438,1.438,0,0,0-.421.968,23.815,23.815,0,0,0,3.05,12.332A31.437,31.437,0,0,1,514.365,555.772Zm50.686-.612a21.084,21.084,0,0,1-36.207-13.975h42.141A20.907,20.907,0,0,1,565.051,555.16Z" transform="translate(-479.95 -506.691)"/></svg>