<svg xmlns="http://www.w3.org/2000/svg" width="72.972" height="39.692" viewBox="0 0 72.972 39.692"><rect width="72.972" height="39.692" rx="4.679" style="fill:#fff"/><path style="fill:#005ca8" d="M33.016 28.029h-4.257l2.661-16.354h4.258zM25.176 11.675l-4.059 11.248-.48-2.422-1.432-7.354a1.823 1.823 0 0 0-2.02-1.473h-6.71l-.079.277a15.89 15.89 0 0 1 4.454 1.87l3.7 14.208h4.433l6.774-16.354zM58.667 28.03h3.91l-3.409-16.354h-3.423a1.956 1.956 0 0 0-1.965 1.219l-6.35 15.136h4.438l.888-2.429h5.413zm-4.685-5.785 2.237-6.121 1.259 6.121zM47.762 15.607l.608-3.512a12.294 12.294 0 0 0-3.83-.713c-2.113 0-7.131.924-7.131 5.414 0 4.226 5.889 4.278 5.889 6.5s-5.282 1.822-7.025.422l-.633 3.671a11.921 11.921 0 0 0 4.807.924c2.9 0 7.289-1.505 7.289-5.6 0-4.252-5.942-4.648-5.942-6.5s4.146-1.61 5.968-.606z"/><path d="m165.254 967.945-1.432-7.354a1.823 1.823 0 0 0-2.02-1.473h-6.71l-.079.277a16.5 16.5 0 0 1 6.32 3.173 12.748 12.748 0 0 1 3.921 5.377z" transform="translate(-144.617 -947.443)" style="fill:#f6a723"/></svg>